<svg xmlns="http://www.w3.org/2000/svg" viewBox="0 0 1000 1600" preserveAspectRatio="xMidYMid slice"><defs><filter id="w" x="-50%" y="-50%" width="200%" height="200%"><feGaussianBlur stdDeviation="3"/></filter></defs><g filter="url(#w)"><ellipse cx="60" cy="110" rx="32" ry="40" fill="#c9a7ea" fill-opacity=".6" transform="rotate(0.0 60 150)"/><ellipse cx="60" cy="110" rx="32" ry="40" fill="#c9a7ea" fill-opacity=".6" transform="rotate(51.4 60 150)"/><ellipse cx="60" cy="110" rx="32" ry="40" fill="#c9a7ea" fill-opacity=".6" transform="rotate(102.9 60 150)"/><ellipse cx="60" cy="110" rx="32" ry="40" fill="#c9a7ea" fill-opacity=".6" transform="rotate(154.3 60 150)"/><ellipse cx="60" cy="110" rx="32" ry="40" fill="#c9a7ea" fill-opacity=".6" transform="rotate(205.7 60 150)"/><ellipse cx="60" cy="110" rx="32" ry="40" fill="#c9a7ea" fill-opacity=".6" transform="rotate(257.1 60 150)"/><ellipse cx="60" cy="110" rx="32" ry="40" fill="#c9a7ea" fill-opacity=".6" transform="rotate(308.6 60 150)"/><circle cx="60" cy="150" r="13" fill="#fff2c2" fill-opacity=".8"/></g><g filter="url(#w)"><ellipse cx="60" cy="293" rx="46" ry="57" fill="#f4a6b8" fill-opacity=".6" transform="rotate(0.0 60 350)"/><ellipse cx="60" cy="293" rx="46" ry="57" fill="#f4a6b8" fill-opacity=".6" transform="rotate(51.4 60 350)"/><ellipse cx="60" cy="293" rx="46" ry="57" fill="#f4a6b8" fill-opacity=".6" transform="rotate(102.9 60 350)"/><ellipse cx="60" cy="293" rx="46" ry="57" fill="#f4a6b8" fill-opacity=".6" transform="rotate(154.3 60 350)"/><ellipse cx="60" cy="293" rx="46" ry="57" fill="#f4a6b8" fill-opacity=".6" transform="rotate(205.7 60 350)"/><ellipse cx="60" cy="293" rx="46" ry="57" fill="#f4a6b8" fill-opacity=".6" transform="rotate(257.1 60 350)"/><ellipse cx="60" cy="293" rx="46" ry="57" fill="#f4a6b8" fill-opacity=".6" transform="rotate(308.6 60 350)"/><circle cx="60" cy="350" r="19" fill="#fff2c2" fill-opacity=".8"/></g><g filter="url(#w)"><ellipse cx="60" cy="509" rx="34" ry="41" fill="#f4a6b8" fill-opacity=".6" transform="rotate(0.0 60 550)"/><ellipse cx="60" cy="509" rx="34" ry="41" fill="#f4a6b8" fill-opacity=".6" transform="rotate(51.4 60 550)"/><ellipse cx="60" cy="509" rx="34" ry="41" fill="#f4a6b8" fill-opacity=".6" transform="rotate(102.9 60 550)"/><ellipse cx="60" cy="509" rx="34" ry="41" fill="#f4a6b8" fill-opacity=".6" transform="rotate(154.3 60 550)"/><ellipse cx="60" cy="509" rx="34" ry="41" fill="#f4a6b8" fill-opacity=".6" transform="rotate(205.7 60 550)"/><ellipse cx="60" cy="509" rx="34" ry="41" fill="#f4a6b8" fill-opacity=".6" transform="rotate(257.1 60 550)"/><ellipse cx="60" cy="509" rx="34" ry="41" fill="#f4a6b8" fill-opacity=".6" transform="rotate(308.6 60 550)"/><circle cx="60" cy="550" r="14" fill="#fff2c2" fill-opacity=".8"/></g><g filter="url(#w)"><ellipse cx="60" cy="707" rx="35" ry="43" fill="#f7c59f" fill-opacity=".6" transform="rotate(0.0 60 750)"/><ellipse cx="60" cy="707" rx="35" ry="43" fill="#f7c59f" fill-opacity=".6" transform="rotate(51.4 60 750)"/><ellipse cx="60" cy="707" rx="35" ry="43" fill="#f7c59f" fill-opacity=".6" transform="rotate(102.9 60 750)"/><ellipse cx="60" cy="707" rx="35" ry="43" fill="#f7c59f" fill-opacity=".6" transform="rotate(154.3 60 750)"/><ellipse cx="60" cy="707" rx="35" ry="43" fill="#f7c59f" fill-opacity=".6" transform="rotate(205.7 60 750)"/><ellipse cx="60" cy="707" rx="35" ry="43" fill="#f7c59f" fill-opacity=".6" transform="rotate(257.1 60 750)"/><ellipse cx="60" cy="707" rx="35" ry="43" fill="#f7c59f" fill-opacity=".6" transform="rotate(308.6 60 750)"/><circle cx="60" cy="750" r="14" fill="#fff2c2" fill-opacity=".8"/></g><g filter="url(#w)"><ellipse cx="60" cy="898" rx="42" ry="52" fill="#c9a7ea" fill-opacity=".6" transform="rotate(0.0 60 950)"/><ellipse cx="60" cy="898" rx="42" ry="52" fill="#c9a7ea" fill-opacity=".6" transform="rotate(51.4 60 950)"/><ellipse cx="60" cy="898" rx="42" ry="52" fill="#c9a7ea" fill-opacity=".6" transform="rotate(102.9 60 950)"/><ellipse cx="60" cy="898" rx="42" ry="52" fill="#c9a7ea" fill-opacity=".6" transform="rotate(154.3 60 950)"/><ellipse cx="60" cy="898" rx="42" ry="52" fill="#c9a7ea" fill-opacity=".6" transform="rotate(205.7 60 950)"/><ellipse cx="60" cy="898" rx="42" ry="52" fill="#c9a7ea" fill-opacity=".6" transform="rotate(257.1 60 950)"/><ellipse cx="60" cy="898" rx="42" ry="52" fill="#c9a7ea" fill-opacity=".6" transform="rotate(308.6 60 950)"/><circle cx="60" cy="950" r="17" fill="#fff2c2" fill-opacity=".8"/></g><g filter="url(#w)"><ellipse cx="60" cy="1090" rx="50" ry="61" fill="#f4a6b8" fill-opacity=".6" transform="rotate(0.0 60 1150)"/><ellipse cx="60" cy="1090" rx="50" ry="61" fill="#f4a6b8" fill-opacity=".6" transform="rotate(51.4 60 1150)"/><ellipse cx="60" cy="1090" rx="50" ry="61" fill="#f4a6b8" fill-opacity=".6" transform="rotate(102.9 60 1150)"/><ellipse cx="60" cy="1090" rx="50" ry="61" fill="#f4a6b8" fill-opacity=".6" transform="rotate(154.3 60 1150)"/><ellipse cx="60" cy="1090" rx="50" ry="61" fill="#f4a6b8" fill-opacity=".6" transform="rotate(205.7 60 1150)"/><ellipse cx="60" cy="1090" rx="50" ry="61" fill="#f4a6b8" fill-opacity=".6" transform="rotate(257.1 60 1150)"/><ellipse cx="60" cy="1090" rx="50" ry="61" fill="#f4a6b8" fill-opacity=".6" transform="rotate(308.6 60 1150)"/><circle cx="60" cy="1150" r="20" fill="#fff2c2" fill-opacity=".8"/></g><g filter="url(#w)"><ellipse cx="60" cy="1294" rx="45" ry="56" fill="#f7c59f" fill-opacity=".6" transform="rotate(0.0 60 1350)"/><ellipse cx="60" cy="1294" rx="45" ry="56" fill="#f7c59f" fill-opacity=".6" transform="rotate(51.4 60 1350)"/><ellipse cx="60" cy="1294" rx="45" ry="56" fill="#f7c59f" fill-opacity=".6" transform="rotate(102.9 60 1350)"/><ellipse cx="60" cy="1294" rx="45" ry="56" fill="#f7c59f" fill-opacity=".6" transform="rotate(154.3 60 1350)"/><ellipse cx="60" cy="1294" rx="45" ry="56" fill="#f7c59f" fill-opacity=".6" transform="rotate(205.7 60 1350)"/><ellipse cx="60" cy="1294" rx="45" ry="56" fill="#f7c59f" fill-opacity=".6" transform="rotate(257.1 60 1350)"/><ellipse cx="60" cy="1294" rx="45" ry="56" fill="#f7c59f" fill-opacity=".6" transform="rotate(308.6 60 1350)"/><circle cx="60" cy="1350" r="18" fill="#fff2c2" fill-opacity=".8"/></g><g filter="url(#w)"><ellipse cx="60" cy="1496" rx="45" ry="54" fill="#f4a6b8" fill-opacity=".6" transform="rotate(0.0 60 1550)"/><ellipse cx="60" cy="1496" rx="45" ry="54" fill="#f4a6b8" fill-opacity=".6" transform="rotate(51.4 60 1550)"/><ellipse cx="60" cy="1496" rx="45" ry="54" fill="#f4a6b8" fill-opacity=".6" transform="rotate(102.9 60 1550)"/><ellipse cx="60" cy="1496" rx="45" ry="54" fill="#f4a6b8" fill-opacity=".6" transform="rotate(154.3 60 1550)"/><ellipse cx="60" cy="1496" rx="45" ry="54" fill="#f4a6b8" fill-opacity=".6" transform="rotate(205.7 60 1550)"/><ellipse cx="60" cy="1496" rx="45" ry="54" fill="#f4a6b8" fill-opacity=".6" transform="rotate(257.1 60 1550)"/><ellipse cx="60" cy="1496" rx="45" ry="54" fill="#f4a6b8" fill-opacity=".6" transform="rotate(308.6 60 1550)"/><circle cx="60" cy="1550" r="18" fill="#fff2c2" fill-opacity=".8"/></g></svg>