<svg xmlns="http://www.w3.org/2000/svg" viewBox="0 0 1000 1600" preserveAspectRatio="xMidYMid slice"><defs></defs><path d="M8 1600V992.0A92.0 92.0 0 0 1 192 992.0V1600Z" fill="#4d0c17" stroke="#b98a2e" stroke-width="3"/><path d="M30 1600V1004.0A70.0 70.0 0 0 1 170 1004.0V1600Z" fill="none" stroke="#b98a2e" stroke-opacity=".5" stroke-width="2"/><path d="M208 1600V992.0A92.0 92.0 0 0 1 392 992.0V1600Z" fill="#4d0c17" stroke="#b98a2e" stroke-width="3"/><path d="M230 1600V1004.0A70.0 70.0 0 0 1 370 1004.0V1600Z" fill="none" stroke="#b98a2e" stroke-opacity=".5" stroke-width="2"/><path d="M408 1600V992.0A92.0 92.0 0 0 1 592 992.0V1600Z" fill="#4d0c17" stroke="#b98a2e" stroke-width="3"/><path d="M430 1600V1004.0A70.0 70.0 0 0 1 570 1004.0V1600Z" fill="none" stroke="#b98a2e" stroke-opacity=".5" stroke-width="2"/><path d="M608 1600V992.0A92.0 92.0 0 0 1 792 992.0V1600Z" fill="#4d0c17" stroke="#b98a2e" stroke-width="3"/><path d="M630 1600V1004.0A70.0 70.0 0 0 1 770 1004.0V1600Z" fill="none" stroke="#b98a2e" stroke-opacity=".5" stroke-width="2"/><path d="M808 1600V992.0A92.0 92.0 0 0 1 992 992.0V1600Z" fill="#4d0c17" stroke="#b98a2e" stroke-width="3"/><path d="M830 1600V1004.0A70.0 70.0 0 0 1 970 1004.0V1600Z" fill="none" stroke="#b98a2e" stroke-opacity=".5" stroke-width="2"/><path d="M8 1600V1097.0A117.0 117.0 0 0 1 242 1097.0V1600Z" fill="#3a0812" stroke="#e0b04a" stroke-width="3"/><path d="M30 1600V1109.0A95.0 95.0 0 0 1 220 1109.0V1600Z" fill="none" stroke="#e0b04a" stroke-opacity=".5" stroke-width="2"/><path d="M258 1600V1097.0A117.0 117.0 0 0 1 492 1097.0V1600Z" fill="#3a0812" stroke="#e0b04a" stroke-width="3"/><path d="M280 1600V1109.0A95.0 95.0 0 0 1 470 1109.0V1600Z" fill="none" stroke="#e0b04a" stroke-opacity=".5" stroke-width="2"/><path d="M508 1600V1097.0A117.0 117.0 0 0 1 742 1097.0V1600Z" fill="#3a0812" stroke="#e0b04a" stroke-width="3"/><path d="M530 1600V1109.0A95.0 95.0 0 0 1 720 1109.0V1600Z" fill="none" stroke="#e0b04a" stroke-opacity=".5" stroke-width="2"/><path d="M758 1600V1097.0A117.0 117.0 0 0 1 992 1097.0V1600Z" fill="#3a0812" stroke="#e0b04a" stroke-width="3"/><path d="M780 1600V1109.0A95.0 95.0 0 0 1 970 1109.0V1600Z" fill="none" stroke="#e0b04a" stroke-opacity=".5" stroke-width="2"/></svg>