<svg xmlns="http://www.w3.org/2000/svg" viewBox="0 0 1000 1600" preserveAspectRatio="xMidYMid slice"><defs><linearGradient id="p" x1="0" y1="0" x2="1" y2="0"><stop offset="0" stop-color="#3a0812"/><stop offset="0.5" stop-color="#8a2a3a"/><stop offset="1" stop-color="#3a0812"/></linearGradient></defs><path d="M0 40Q500 260 1000 40" fill="none" stroke="#7a4a00" stroke-width="3"/><circle cx="0" cy="40" r="17" fill="#ffb300"/><circle cx="45" cy="59" r="17" fill="#ff8f00"/><circle cx="91" cy="76" r="17" fill="#ffd54f"/><circle cx="136" cy="92" r="17" fill="#ffb300"/><circle cx="182" cy="105" r="17" fill="#ff8f00"/><circle cx="227" cy="117" r="17" fill="#ffd54f"/><circle cx="273" cy="127" r="17" fill="#ffb300"/><circle cx="318" cy="135" r="17" fill="#ff8f00"/><circle cx="364" cy="142" r="17" fill="#ffd54f"/><circle cx="409" cy="146" r="17" fill="#ffb300"/><circle cx="455" cy="149" r="17" fill="#ff8f00"/><circle cx="500" cy="150" r="17" fill="#ffd54f"/><circle cx="545" cy="149" r="17" fill="#ffb300"/><circle cx="591" cy="146" r="17" fill="#ff8f00"/><circle cx="636" cy="142" r="17" fill="#ffd54f"/><circle cx="682" cy="135" r="17" fill="#ffb300"/><circle cx="727" cy="127" r="17" fill="#ff8f00"/><circle cx="773" cy="117" r="17" fill="#ffd54f"/><circle cx="818" cy="105" r="17" fill="#ffb300"/><circle cx="864" cy="92" r="17" fill="#ff8f00"/><circle cx="909" cy="76" r="17" fill="#ffd54f"/><circle cx="955" cy="59" r="17" fill="#ffb300"/><circle cx="1000" cy="40" r="17" fill="#ff8f00"/><rect x="0" width="64" height="1600" fill="url(#p)"/><rect x="-8" width="80" height="36" fill="#e0b04a"/><rect x="936" width="64" height="1600" fill="url(#p)"/><rect x="928" width="80" height="36" fill="#e0b04a"/></svg>